PathFileType	4	(X/Y/Z)	Run_400 02
DataRate	CameraRate	NumFrames	NumMarkers	Units	OrigDataRate	OrigDataStartFrame	OrigNumFrames
100	100	8	42	mm	100	312	128
Frame#	Time	RASI			LPSI			RPSI			RTH1			RTH2			RTH3			LTH1			LTH2			LTH3			RTB1			RTB2			RTB3			LTB1			LTB2			LTB3			RCAL			RTOE			RMT5			LCAL			LTOE			LMT5			LACR			RACR			CLAV			C7			RUA1			RUA2			RUA3			RLEL			RMEL			LUA2			LUA3			LLEL			LMEL			RFAsuperior			RFAradius			RFAulna			LFAsuperior			LFAradius			LFAulna			LUA1			LASI		
		X1	Y1	Z1	X2	Y2	Z2	X3	Y3	Z3	X4	Y4	Z4	X5	Y5	Z5	X6	Y6	Z6	X7	Y7	Z7	X8	Y8	Z8	X9	Y9	Z9	X10	Y10	Z10	X11	Y11	Z11	X12	Y12	Z12	X13	Y13	Z13	X14	Y14	Z14	X15	Y15	Z15	X16	Y16	Z16	X17	Y17	Z17	X18	Y18	Z18	X19	Y19	Z19	X20	Y20	Z20	X21	Y21	Z21	X22	Y22	Z22	X23	Y23	Z23	X24	Y24	Z24	X25	Y25	Z25	X26	Y26	Z26	X27	Y27	Z27	X28	Y28	Z28	X29	Y29	Z29	X30	Y30	Z30	X31	Y31	Z31	X32	Y32	Z32	X33	Y33	Z33	X34	Y34	Z34	X35	Y35	Z35	X36	Y36	Z36	X37	Y37	Z37	X38	Y38	Z38	X39	Y39	Z39	X40	Y40	Z40	X41	Y41	Z41	X42	Y42	Z42	

312	  3.120000	1183.705413	1001.934089	-189.846204	1007.406271	1069.508644	-353.517811	1009.557383	1063.451462	-260.057839	1103.082708	816.555457	-152.000966	1099.386303	711.739911	-174.890958	993.167583	603.960931	-181.303445	1116.763139	873.943312	-506.480904	1220.009418	769.409864	-491.088203	1190.990710	637.311473	-463.923195	815.567458	440.269666	-252.198891	710.186428	480.230001	-203.439283	635.233671	451.128520	-261.725062	1310.114968	381.075668	-383.060942	1285.478861	311.188444	-418.412211	1325.118788	244.457393	-359.828328	550.953666	564.513835	-240.921387	491.933915	345.189401	-305.819363	457.353495	352.492103	-233.473241	1248.095865	 87.265032	-324.212177	1517.956102	106.598524	-310.377460	1462.978029	114.685284	-394.105359	1148.702951	1535.253785	-485.933218	1237.024349	1524.850540	-170.217307	1243.031208	1463.318951	-310.593603	1130.462197	1559.510561	-313.221249	1200.858001	1417.616185	-63.171544	1136.869169	1421.410433	-42.449860	1147.698282	1354.169088	-13.238825	1109.634878	1283.532738	 19.079752	1035.924739	1288.925314	-42.760858	964.873123	1455.069889	-495.950732	942.473863	1399.092394	-561.195132	890.444938	1342.644345	-569.749789	891.753663	1319.683997	-478.251966	1178.971135	1263.040078	-32.367028	1270.095864	1234.419764	-175.117338	1261.590614	1169.775465	-143.993572	967.171174	1302.180581	-588.780795	1143.008095	1264.511234	-556.234713	1116.008318	1201.730066	-576.805873	1038.869372	1477.520430	-549.043797	1176.071754	1016.402636	-434.691782	
313	  3.130000	1180.907108	995.748560	-187.567971	1005.254971	1061.785411	-352.977898	1006.773635	1055.530246	-259.531000	1103.333137	809.607121	-149.278236	1105.045224	704.092487	-169.570658	1002.952047	593.014868	-177.205510	1115.114716	867.891985	-505.217675	1218.111652	767.830936	-489.260118	1190.649759	632.332662	-464.410500	830.183895	436.263947	-246.610421	727.256046	484.868611	-200.389968	651.515623	458.335491	-259.349996	1300.837006	369.151420	-382.729166	1272.043315	300.809787	-417.181897	1308.004257	232.318579	-358.309630	572.746642	578.165092	-245.817525	504.679663	357.718118	-296.373580	470.330938	371.448638	-224.634208	1220.702142	 88.302813	-323.146806	1498.230977	 88.827796	-306.809967	1443.261478	 96.322760	-390.646980	1150.562490	1524.741303	-487.919153	1233.724961	1515.658895	-169.317753	1242.126457	1453.646213	-309.999021	1130.325250	1550.443155	-314.749808	1192.370231	1409.068122	-62.848111	1127.944861	1413.018069	-44.218684	1137.400481	1344.774737	-15.378374	1097.921351	1274.944985	 15.811042	1027.054703	1281.182130	-48.397974	967.270706	1438.449396	-504.030737	949.706393	1380.377413	-568.737953	900.058184	1322.642229	-578.638970	898.964181	1299.915534	-487.030357	1168.191342	1249.567123	-32.265951	1263.232131	1211.107129	-170.127628	1250.445096	1148.047250	-137.795078	978.335652	1284.647326	-595.548368	1154.007082	1251.875808	-558.342223	1129.449334	1188.385581	-579.814639	1043.194915	1462.732302	-553.399897	1174.064377	1009.358713	-434.650357	
314	  3.140000	1177.675311	988.546605	-185.114907	1002.656591	1054.150492	-352.674358	1002.939977	1047.464709	-259.049774	1103.224034	801.886533	-146.910153	1110.712610	696.359875	-164.453491	1013.854813	581.444588	-172.978036	1113.281993	860.648034	-503.880177	1215.738647	763.915317	-486.581655	1189.330514	626.938160	-465.801428	846.673826	431.642403	-241.561200	746.362410	487.219634	-197.544859	670.275490	463.359646	-257.501417	1291.898905	358.730612	-382.263641	1258.304453	292.353275	-415.526236	1289.556000	222.425268	-355.742042	596.703708	588.130315	-250.651689	521.146318	367.408162	-287.129424	487.411016	387.123057	-216.211244	1190.064763	 91.523368	-321.027794	1471.245792	 72.611673	-304.058599	1416.287050	 79.521003	-388.004172	1152.889911	1513.432566	-490.218580	1229.811716	1505.787880	-167.855495	1241.304351	1443.331480	-309.123269	1130.386733	1540.426283	-316.473040	1183.346923	1398.987756	-63.040974	1118.424127	1403.365655	-46.137855	1126.381513	1333.680862	-18.544650	1085.542030	1265.141361	 12.177523	1017.635555	1272.144359	-54.792013	970.290247	1420.396771	-512.293196	957.837334	1360.399199	-576.171800	910.747015	1301.882623	-587.617615	906.875405	1279.225715	-495.873608	1156.559790	1234.624412	-32.214860	1255.299575	1186.919266	-164.582252	1238.190118	1125.607205	-131.471738	990.219544	1266.074045	-602.539021	1165.374625	1238.146274	-560.360320	1143.207036	1174.035089	-582.449262	1047.852812	1446.691581	-557.498932	1171.546111	1002.338588	-434.713212	
315	  3.150000	1173.700963	980.536452	-182.895811	999.271454	1046.925204	-352.492185	998.197378	1039.504226	-258.690056	1103.152560	794.004830	-145.158464	1116.410741	689.153871	-160.116462	1026.108286	569.599287	-169.058127	1110.527629	853.457123	-503.484738	1213.736117	757.649127	-485.562751	1187.512753	621.775958	-467.168764	865.356212	426.910319	-237.927785	767.420892	487.171901	-195.250255	691.346266	466.330797	-256.140498	1282.872390	351.602093	-380.714306	1245.241189	287.407230	-413.555558	1269.550442	216.598921	-351.960533	622.184683	594.631234	-254.405163	541.153430	374.208853	-279.009978	508.698486	398.513046	-208.683526	1156.548758	 95.212594	-318.581816	1434.506077	 60.133152	-301.506053	1379.560399	 66.460075	-385.563324	1155.762677	1501.787746	-493.169434	1225.386456	1495.607453	-165.717141	1240.609783	1432.841987	-308.005272	1130.634975	1530.275379	-318.658528	1173.914085	1387.272065	-64.026144	1108.398973	1392.568962	-48.133675	1114.684655	1321.102006	-22.916805	1072.530124	1254.491124	  7.981815	1007.315310	1262.214546	-61.595946	973.872654	1400.852060	-520.902216	967.113280	1338.820760	-583.108675	922.491919	1280.519533	-596.383907	915.663859	1257.773478	-504.614070	1143.921736	1218.504170	-32.422618	1246.352627	1162.568367	-158.740105	1224.994630	1103.171439	-124.995391	1002.730104	1246.340603	-609.397434	1177.085996	1223.509527	-562.080422	1157.263362	1158.799719	-584.543500	1052.809445	1429.270502	-561.420944	1168.131817	995.634901	-434.855518	
316	  3.160000	1168.661433	972.337009	-181.126129	994.993109	1040.030063	-352.041315	993.198627	1031.669181	-258.414355	1103.577590	786.808663	-143.883261	1122.744823	683.103495	-156.464022	1040.117128	558.458856	-165.698431	1106.206363	847.886610	-503.957136	1211.346858	750.178221	-487.302656	1185.238306	617.217566	-467.773262	886.563449	422.459166	-235.973772	790.412103	485.033205	-193.543194	714.593621	467.290686	-255.095512	1272.124178	347.725336	-377.747782	1231.967372	285.746056	-411.585164	1247.227555	214.591786	-347.682775	648.161550	598.074109	-256.304120	564.578988	377.752930	-272.826666	534.106344	404.456182	-202.486209	1120.723633	 98.400070	-316.527780	1392.058175	 53.016891	-299.100900	1337.125186	 58.757009	-383.274041	1159.292615	1490.417752	-496.779302	1220.647999	1485.527227	-163.090402	1239.947164	1422.777388	-306.807282	1131.110321	1521.299307	-321.365758	1164.131561	1374.267274	-65.823317	1097.926383	1380.910691	-50.195991	1102.410838	1307.770945	-28.326801	1058.935702	1243.533808	  2.896444	996.273224	1251.852028	-68.855892	978.272069	1380.207729	-530.064278	977.859168	1315.914184	-589.186845	935.508467	1258.814861	-604.542886	925.648232	1235.837078	-513.224915	1130.501209	1202.298724	-33.470310	1236.623889	1139.037302	-152.809974	1211.088759	1081.732891	-118.314887	1016.048476	1225.788957	-615.430571	1189.253949	1208.277479	-563.133620	1171.764566	1142.922996	-585.902837	1058.626098	1410.756495	-565.333092	1163.834803	989.259487	-435.019562	
317	  3.170000	1162.550423	964.704320	-179.619218	990.104849	1033.450943	-351.029181	988.631028	1024.053422	-258.160764	1104.622761	780.962962	-142.609892	1130.335592	678.743539	-152.897936	1056.240766	549.360338	-162.740704	1100.679931	844.399911	-504.242347	1206.796873	742.909865	-490.378547	1181.631441	612.902911	-467.366851	910.276254	418.436273	-235.167056	815.232675	481.492765	-192.177670	739.811546	466.325774	-254.241683	1257.851709	344.910808	-373.956008	1215.978185	285.166457	-409.824967	1221.841534	213.869941	-343.950223	673.444211	598.799017	-256.106835	591.283478	377.586590	-268.953216	563.311295	404.230131	-197.851883	1083.454251	100.737357	-315.049057	1350.469628	 51.050203	-297.306599	1295.544005	 56.196706	-381.593031	1163.542502	1479.963226	-500.411882	1215.694608	1475.960892	-160.461797	1239.077039	1413.661461	-305.644743	1131.836925	1514.464605	-324.256917	1154.065376	1361.070105	-68.165833	1087.037244	1369.149274	-52.560189	1089.708145	1295.005105	-34.261905	1044.857215	1233.004587	 -3.200592	985.450641	1241.514684	-77.085780	984.248746	1359.813877	-539.368613	990.227769	1293.206549	-594.133750	950.268533	1237.477677	-611.623912	937.053748	1214.136927	-521.553695	1116.958216	1187.875708	-35.981680	1226.354162	1117.506929	-146.901388	1196.648340	1062.438554	-111.445185	1030.821818	1205.687607	-619.852593	1202.179515	1193.049325	-563.008287	1187.007315	1127.000849	-586.315820	1066.403951	1392.286250	-569.289774	1159.178957	983.294278	-435.171188	
318	  3.180000	1155.766006	958.193423	-177.938717	985.184383	1027.662271	-349.656631	984.796686	1017.186515	-258.040145	1105.957265	776.710457	-140.947602	1139.258896	676.366163	-149.048370	1074.491213	543.331728	-159.837060	1095.169753	841.915098	-503.555407	1199.261767	736.571703	-492.299193	1175.226064	607.980982	-465.999942	936.052393	414.903354	-234.671241	841.530851	477.300037	-190.889258	766.565688	463.676426	-253.473592	1239.310374	340.458902	-370.408679	1195.195941	283.116118	-408.231402	1193.265858	211.609576	-341.370210	697.087848	596.908618	-254.231109	621.014967	373.497038	-267.100246	595.710493	398.047899	-194.676549	1045.620825	102.264160	-313.929304	1312.405277	 51.970063	-296.248552	1257.481734	 56.525100	-380.636892	1168.494293	1470.976124	-503.108487	1210.388550	1467.351253	-158.283756	1237.748676	1405.811517	-304.396454	1132.591159	1509.590043	-326.735415	1143.722474	1349.353319	-70.653558	1075.696466	1358.576947	-55.681895	1076.650287	1284.340704	-40.113224	1030.367466	1223.832146	-10.022931	975.618152	1231.854697	-86.571285	992.602633	1341.725829	-547.463347	1003.972700	1273.110430	-597.754288	967.037510	1217.820520	-617.123597	949.710788	1194.028817	-528.960991	1103.763185	1176.909956	-39.953870	1215.603260	1099.281221	-141.137424	1181.766629	1046.428854	-104.790096	1047.777145	1187.930526	-622.107610	1216.192723	1178.838956	-561.199218	1203.213877	1112.147631	-585.498005	1076.915555	1375.624807	-572.965466	1154.856144	978.075344	-435.238739	
319	  3.190000	1148.897925	953.098258	-175.821437	980.822050	1023.417272	-348.538298	981.480056	1011.936575	-258.270582	1107.121802	774.003167	-138.873498	1149.039383	676.079050	-145.150692	1094.443406	540.690355	-156.881225	1090.589941	838.966855	-502.175648	1189.919169	730.877065	-491.753434	1165.140181	602.025644	-463.875747	963.308510	412.175279	-234.040290	868.672305	472.937792	-189.645799	794.116790	459.644766	-252.639360	1217.166872	333.388664	-367.834952	1169.836740	278.693079	-406.637943	1162.290831	207.083194	-339.845627	718.696085	592.279568	-251.604873	653.342180	365.666268	-266.379617	630.388005	387.075204	-192.515842	1007.846413	103.386067	-313.014100	1275.989988	 53.201637	-295.422925	1221.074412	 57.179560	-379.907626	1174.137235	1463.825729	-504.305357	1204.424947	1460.204106	-156.657576	1235.884602	1399.412654	-302.775601	1132.841846	1505.583964	-328.380228	1132.871647	1340.680990	-72.910114	1063.718873	1350.587334	-59.916729	1063.088055	1276.947709	-45.454587	1015.370744	1217.023278	-16.986983	966.137509	1223.891922	-96.607642	1003.323035	1327.582977	-552.800781	1018.432212	1257.576434	-599.879981	985.213365	1201.375987	-620.578610	963.055420	1177.163225	-534.344313	1090.459496	1169.793837	-44.374421	1204.278463	1085.712626	-135.766971	1166.585173	1034.739840	-99.265173	1066.812248	1173.971740	-622.038399	1231.284795	1167.009290	-557.456349	1220.235815	1099.864265	-583.066371	1089.641965	1362.306452	-575.696200	1151.277702	973.961564	-435.015249	
